<?xml version="1.0" encoding="UTF-8"?>
<!DOCTYPE svg PUBLIC "-//W3C//DTD SVG 1.1//EN" "http://www.w3.org/Graphics/SVG/1.1/DTD/svg11.dtd">
<svg xmlns="http://www.w3.org/2000/svg" version="1.1" width="500px" height="500px" style="shape-rendering:geometricPrecision; text-rendering:geometricPrecision; image-rendering:optimizeQuality; fill-rule:evenodd; clip-rule:evenodd" xmlns:xlink="http://www.w3.org/1999/xlink">
<g><path style="opacity:1" fill="#212a9c" d="M 311.5,63.5 C 311.427,65.0269 312.094,66.0269 313.5,66.5C 315.065,68.5093 316.065,70.8427 316.5,73.5C 317.256,77.767 318.589,81.767 320.5,85.5C 320.294,88.4951 320.96,91.1617 322.5,93.5C 325.294,106.333 324.961,119 321.5,131.5C 319.39,135.502 318.057,139.835 317.5,144.5C 307.566,170.27 289.9,188.77 264.5,200C 263.207,200.49 261.873,200.657 260.5,200.5C 260.667,175.498 260.5,150.498 260,125.5C 257.036,113.868 249.869,106.034 238.5,102C 219.881,96.9959 205.548,102.496 195.5,118.5C 193.896,119.287 193.229,120.62 193.5,122.5C 193.5,123.167 193.5,123.833 193.5,124.5C 192.883,124.611 192.383,124.944 192,125.5C 192.159,150.52 191.326,175.187 189.5,199.5C 151.376,182.302 131.376,152.635 129.5,110.5C 130.19,85.7429 138.524,64.0762 154.5,45.5C 158.1,43.5698 161.1,40.9031 163.5,37.5C 187.045,16.9429 214.378,9.44287 245.5,15C 275.102,21.1374 297.102,37.3041 311.5,63.5 Z"/></g>
<g><path style="opacity:1" fill="#5a5cb5" d="M 163.5,37.5 C 161.1,40.9031 158.1,43.5698 154.5,45.5C 156.9,42.0969 159.9,39.4302 163.5,37.5 Z"/></g>
<g><path style="opacity:0.988" fill="#636bbb" d="M 311.5,63.5 C 312.906,63.9731 313.573,64.9731 313.5,66.5C 312.094,66.0269 311.427,65.0269 311.5,63.5 Z"/></g>
<g><path style="opacity:1" fill="#575db5" d="M 316.5,73.5 C 318.806,77.0845 320.139,81.0845 320.5,85.5C 318.589,81.767 317.256,77.767 316.5,73.5 Z"/></g>
<g><path style="opacity:1" fill="#5c64b8" d="M 320.5,85.5 C 321.768,87.9052 322.435,90.5718 322.5,93.5C 320.96,91.1617 320.294,88.4951 320.5,85.5 Z"/></g>
<g><path style="opacity:1" fill="#20299c" d="M 245.5,120.5 C 245.427,122.027 246.094,123.027 247.5,123.5C 248.307,158.811 248.807,194.144 249,229.5C 249.333,229.833 249.667,230.167 250,230.5C 250.315,228.414 250.815,226.414 251.5,224.5C 255.732,213.546 263.732,209.046 275.5,211C 284.294,213.624 289.294,219.458 290.5,228.5C 290.173,233.544 290.506,238.544 291.5,243.5C 292.429,242.311 292.762,240.978 292.5,239.5C 298.299,224.271 308.632,220.105 323.5,227C 327.219,229.612 329.552,233.112 330.5,237.5C 330.41,240.152 331.076,242.485 332.5,244.5C 333.228,247.079 333.728,249.746 334,252.5C 338.353,240.569 346.853,235.736 359.5,238C 368.214,240.713 373.381,246.546 375,255.5C 375.809,284.863 375.643,314.196 374.5,343.5C 373.34,358.098 370.34,372.431 365.5,386.5C 365.008,388.819 364.008,390.819 362.5,392.5C 361.073,394.148 360.24,396.148 360,398.5C 359.178,406.345 359.344,414.011 360.5,421.5C 367.841,421.334 375.174,421.5 382.5,422C 384.141,423.129 385.141,424.629 385.5,426.5C 386.833,443.5 386.833,460.5 385.5,477.5C 385.141,479.371 384.141,480.871 382.5,482C 314.833,482.667 247.167,482.667 179.5,482C 177.064,479.293 175.564,476.127 175,472.5C 174.066,457.445 174.4,442.445 176,427.5C 176.685,424.943 178.185,423.109 180.5,422C 187.826,421.5 195.159,421.334 202.5,421.5C 202.048,414.169 201.548,406.835 201,399.5C 200.466,395.232 199.133,391.232 197,387.5C 167.847,349.858 139.181,311.858 111,273.5C 106.81,262.478 109.643,253.644 119.5,247C 126.967,243.526 134.301,243.859 141.5,248C 161.047,267.382 181.047,286.216 201.5,304.5C 202.086,304.291 202.586,303.957 203,303.5C 203.333,245.167 203.667,186.833 204,128.5C 208.048,115.552 216.882,109.719 230.5,111C 236.882,112.18 241.882,115.347 245.5,120.5 Z"/></g>
<g><path style="opacity:1" fill="#6168ba" d="M 195.5,118.5 C 195.34,120.153 194.674,121.486 193.5,122.5C 193.229,120.62 193.896,119.287 195.5,118.5 Z"/></g>
<g><path style="opacity:1" fill="#6067ba" d="M 245.5,120.5 C 246.906,120.973 247.573,121.973 247.5,123.5C 246.094,123.027 245.427,122.027 245.5,120.5 Z"/></g>
<g><path style="opacity:1" fill="#464eae" d="M 247.5,123.5 C 248.268,124.263 248.768,125.263 249,126.5C 248.839,159.515 249.672,192.182 251.5,224.5C 250.815,226.414 250.315,228.414 250,230.5C 249.667,230.167 249.333,229.833 249,229.5C 248.807,194.144 248.307,158.811 247.5,123.5 Z"/></g>
<g><path style="opacity:1" fill="#555cb5" d="M 321.5,131.5 C 320.943,136.165 319.61,140.498 317.5,144.5C 318.057,139.835 319.39,135.502 321.5,131.5 Z"/></g>
<g><path style="opacity:1" fill="#535cb4" d="M 193.5,124.5 C 192.528,149.801 192.195,175.134 192.5,200.5C 191.209,200.737 190.209,200.404 189.5,199.5C 191.326,175.187 192.159,150.52 192,125.5C 192.383,124.944 192.883,124.611 193.5,124.5 Z"/></g>
<g><path style="opacity:0.994" fill="#5c65b8" d="M 290.5,228.5 C 291.167,232.167 291.833,235.833 292.5,239.5C 292.762,240.978 292.429,242.311 291.5,243.5C 290.506,238.544 290.173,233.544 290.5,228.5 Z"/></g>
<g><path style="opacity:1" fill="#5961b7" d="M 330.5,237.5 C 331.924,239.515 332.59,241.848 332.5,244.5C 331.076,242.485 330.41,240.152 330.5,237.5 Z"/></g>
<g><path style="opacity:1" fill="#575eb6" d="M 374.5,343.5 C 374.933,358.676 371.933,373.009 365.5,386.5C 370.34,372.431 373.34,358.098 374.5,343.5 Z"/></g>
<g><path style="opacity:1" fill="#5a63b7" d="M 362.5,392.5 C 360.716,402.059 360.05,411.725 360.5,421.5C 359.344,414.011 359.178,406.345 360,398.5C 360.24,396.148 361.073,394.148 362.5,392.5 Z"/></g>
<g><path style="opacity:1" fill="#545db5" d="M 385.5,426.5 C 386.268,427.263 386.768,428.263 387,429.5C 387.667,444.833 387.667,460.167 387,475.5C 386.722,476.416 386.222,477.082 385.5,477.5C 386.833,460.5 386.833,443.5 385.5,426.5 Z"/></g>
</svg>
